<?xml version="1.0" encoding="utf-8"?>
<!-- Generator: Adobe Illustrator 16.0.0, SVG Export Plug-In . SVG Version: 6.00 Build 0)  -->
<!DOCTYPE svg PUBLIC "-//W3C//DTD SVG 1.1//EN" "http://www.w3.org/Graphics/SVG/1.1/DTD/svg11.dtd">
<svg version="1.1" id="Layer_1" xmlns="http://www.w3.org/2000/svg" xmlns:xlink="http://www.w3.org/1999/xlink" x="0px" y="0px"
	 width="857.746px" height="180.282px" viewBox="0 0 857.746 180.282" enable-background="new 0 0 857.746 180.282"
	 xml:space="preserve">
<text transform="matrix(1 0 0 1 24.9868 31.1001)" font-family="'TimesNewRomanPSMT'" font-size="18">SOURCE</text>
<ellipse opacity="0.8" fill="none" stroke="#000000" stroke-width="0.8838" stroke-miterlimit="10" cx="675.306" cy="87.93" rx="52.902" ry="23.029"/>
<text transform="matrix(1 0 0 1 631.8135 92.6504)" font-family="'TimesNewRomanPSMT'" font-size="18">Coordinates</text>
<ellipse opacity="0.8" fill="none" stroke="#000000" stroke-width="0.8838" stroke-miterlimit="10" cx="60.304" cy="87.93" rx="52.903" ry="23.029"/>
<text transform="matrix(1 0 0 1 26.8179 92.6504)" font-family="'TimesNewRomanPSMT'" font-size="18">Variables</text>
<ellipse opacity="0.8" fill="none" stroke="#000000" stroke-width="0.8838" stroke-miterlimit="10" cx="183.304" cy="87.93" rx="52.903" ry="23.029"/>
<text transform="matrix(1 0 0 1 154.3179 92.6504)" font-family="'TimesNewRomanPSMT'" font-size="18">Algebra</text>
<ellipse opacity="0.8" fill="none" stroke="#000000" stroke-width="0.8838" stroke-miterlimit="10" cx="306.305" cy="87.93" rx="52.903" ry="23.029"/>
<text transform="matrix(1 0 0 1 283.3125 92.6504)" font-family="'TimesNewRomanPSMT'" font-size="18">Scales</text>
<ellipse opacity="0.5" fill="#00AEEF" stroke="#000000" stroke-width="0.8838" stroke-miterlimit="10" cx="429.305" cy="87.93" rx="52.902" ry="23.029"/>
<text transform="matrix(1 0 0 1 396.8027 92.6504)" font-family="'TimesNewRomanPSMT'" font-size="18">Statistics</text>
<ellipse opacity="0.8" fill="none" stroke="#000000" stroke-width="0.8838" stroke-miterlimit="10" cx="552.306" cy="87.93" rx="52.902" ry="23.029"/>
<text transform="matrix(1 0 0 1 516.3174 93.0503)" font-family="'TimesNewRomanPSMT'" font-size="18">Geometry</text>
<g>
	
		<ellipse fill="none" stroke="#000000" stroke-width="0.8838" stroke-miterlimit="10" cx="798.306" cy="87.93" rx="52.902" ry="23.029"/>
	<text transform="matrix(1 0 0 1 760.8164 92.2505)" font-family="'TimesNewRomanPSMT'" font-size="18">Aesthetics</text>
</g>
<g>
	<line fill="#FFFFFF" x1="108.308" y1="87.931" x2="147.308" y2="87.931"/>
	<g>
		<line fill="none" stroke="#000000" stroke-miterlimit="10" x1="108.308" y1="87.431" x2="141.308" y2="87.431"/>
		<g>
			<path d="M147.069,87.431c-2.84,1.054-6.363,2.852-8.547,4.756l1.72-4.756l-1.72-4.755
				C140.706,84.58,144.229,86.378,147.069,87.431z"/>
		</g>
	</g>
</g>
<g>
	<line fill="#FFFFFF" x1="229.308" y1="87.931" x2="268.308" y2="87.931"/>
	<g>
		<line fill="none" stroke="#000000" stroke-miterlimit="10" x1="229.308" y1="87.431" x2="262.308" y2="87.431"/>
		<g>
			<path d="M268.069,87.431c-2.84,1.054-6.363,2.852-8.547,4.756l1.72-4.756l-1.72-4.755
				C261.706,84.58,265.229,86.378,268.069,87.431z"/>
		</g>
	</g>
</g>
<g>
	<line fill="#FFFFFF" x1="352.308" y1="87.931" x2="391.308" y2="87.931"/>
	<g>
		<line fill="none" stroke="#000000" stroke-miterlimit="10" x1="352.308" y1="87.431" x2="385.308" y2="87.431"/>
		<g>
			<path d="M391.069,87.431c-2.84,1.054-6.363,2.852-8.547,4.756l1.72-4.756l-1.72-4.755
				C384.706,84.58,388.229,86.378,391.069,87.431z"/>
		</g>
	</g>
</g>
<g>
	<line fill="#FFFFFF" x1="475.308" y1="87.931" x2="514.308" y2="87.931"/>
	<g>
		<line fill="none" stroke="#000000" stroke-miterlimit="10" x1="475.308" y1="87.431" x2="508.308" y2="87.431"/>
		<g>
			<path d="M514.069,87.431c-2.84,1.054-6.363,2.852-8.547,4.756l1.72-4.756l-1.72-4.755
				C507.706,84.58,511.229,86.378,514.069,87.431z"/>
		</g>
	</g>
</g>
<g>
	<line fill="#FFFFFF" x1="594.308" y1="87.931" x2="633.308" y2="87.931"/>
	<g>
		<line fill="none" stroke="#000000" stroke-miterlimit="10" x1="594.308" y1="87.431" x2="627.308" y2="87.431"/>
		<g>
			<path d="M633.069,87.431c-2.84,1.054-6.363,2.852-8.547,4.756l1.72-4.756l-1.72-4.755
				C626.706,84.58,630.229,86.378,633.069,87.431z"/>
		</g>
	</g>
</g>
<g>
	<line fill="#FFFFFF" x1="721.308" y1="87.931" x2="760.308" y2="87.931"/>
	<g>
		<line fill="none" stroke="#000000" stroke-miterlimit="10" x1="721.308" y1="87.431" x2="754.308" y2="87.431"/>
		<g>
			<path d="M760.069,87.431c-2.84,1.054-6.363,2.852-8.547,4.756l1.72-4.756l-1.72-4.755
				C753.706,84.58,757.229,86.378,760.069,87.431z"/>
		</g>
	</g>
</g>
<g>
	<line fill="#FFFFFF" x1="60.308" y1="35.931" x2="60.308" y2="74.931"/>
	<g>
		<line fill="none" stroke="#000000" stroke-miterlimit="10" x1="60.808" y1="35.931" x2="60.808" y2="68.931"/>
		<g>
			<path d="M60.484,75.015c-1.054-2.84-2.852-6.363-4.756-8.547l4.756,1.72l4.755-1.72C63.335,68.651,61.537,72.175,60.484,75.015z"
				/>
		</g>
	</g>
</g>
<g>
	<line fill="#FFFFFF" x1="799.308" y1="95.931" x2="799.308" y2="134.931"/>
	<g>
		<line fill="none" stroke="#000000" stroke-miterlimit="10" x1="799.808" y1="95.931" x2="799.808" y2="128.931"/>
		<g>
			<path d="M799.484,135.015c-1.054-2.84-2.852-6.363-4.756-8.547l4.756,1.72l4.755-1.72
				C802.335,128.651,800.537,132.175,799.484,135.015z"/>
		</g>
	</g>
</g>
<text transform="matrix(1 0 0 1 807.7041 125.7617)" font-family="'TimesNewRomanPSMT'" font-size="14">Graphic</text>
<rect x="746.808" y="136.431" fill="none" stroke="#000000" stroke-miterlimit="10" width="106" height="35"/>
<text transform="matrix(1 0 0 1 752.6123 158.4238)" font-family="'TimesNewRomanPSMT'" font-size="18">RENDERER</text>
<rect x="7.808" y="8.431" fill="none" stroke="#000000" stroke-miterlimit="10" width="106" height="35"/>
<text transform="matrix(1 0 0 1 27.3096 58.9023)" font-family="'TimesNewRomanPSMT'" font-size="14">Data</text>
<text transform="matrix(1 0 0 1 104.8999 112.4297)" font-family="'TimesNewRomanPSMT'" font-size="14">Varset</text>
<text transform="matrix(1 0 0 1 228.8994 112.4297)" font-family="'TimesNewRomanPSMT'" font-size="14">Varset</text>
<text transform="matrix(1 0 0 1 352.8989 112.4297)" font-family="'TimesNewRomanPSMT'" font-size="14">Varset</text>
<text transform="matrix(1 0 0 1 475.8984 112.4297)" font-family="'TimesNewRomanPSMT'" font-size="14">Varset</text>
<text transform="matrix(1 0 0 1 595.8975 112.4297)" font-family="'TimesNewRomanPSMT'" font-size="14">Graph</text>
<text transform="matrix(1 0 0 1 720.8975 112.4297)" font-family="'TimesNewRomanPSMT'" font-size="14">Graph</text>
<g>
	<g>
		<line fill="none" stroke="#000000" stroke-miterlimit="10" x1="60.808" y1="154.931" x2="60.808" y2="121.931"/>
		<g>
			<path d="M60.484,115.845c1.054,2.84,2.852,6.363,4.756,8.547l-4.756-1.72l-4.755,1.72
				C57.634,122.208,59.432,118.685,60.484,115.845z"/>
		</g>
	</g>
</g>
<line fill="none" stroke="#000000" stroke-miterlimit="10" x1="745.308" y1="154.431" x2="60.308" y2="154.431"/>
</svg>
